<svg id="svg" xmlns="http://www.w3.org/2000/svg" xmlns:xlink="http://www.w3.org/1999/xlink" width="400" height="400" viewBox="0, 0, 400,400"><g id="svgg"><path id="path0" d="M80.667 33.467 C 80.520 33.613,80.400 36.636,80.400 40.184 L 80.400 46.635 79.100 47.017 C 76.938 47.654,76.658 48.789,76.472 57.665 L 76.308 65.530 74.554 66.790 L 72.800 68.050 72.800 77.025 C 72.800 84.283,72.697 86.000,72.261 86.000 C 69.981 86.000,69.200 88.637,69.200 96.340 C 69.200 102.311,69.172 102.518,68.200 103.673 C 67.201 104.860,67.200 104.874,67.200 113.431 L 67.200 122.000 65.849 122.000 C 63.544 122.000,63.446 122.380,63.267 132.032 C 63.114 140.212,63.054 140.792,62.339 141.019 C 59.874 141.802,59.600 142.785,59.600 150.853 C 59.600 156.996,59.498 158.354,59.021 158.537 C 58.702 158.659,58.238 159.517,57.988 160.443 C 57.739 161.370,57.234 162.586,56.867 163.146 C 56.339 163.953,56.158 165.513,56.000 170.651 C 55.814 176.682,55.737 177.204,54.900 178.094 C 54.021 179.029,54.000 179.267,54.000 188.102 L 54.000 197.153 52.305 197.488 C 50.167 197.911,50.055 198.413,50.023 207.737 C 50.001 214.128,49.959 214.486,49.200 214.684 C 48.760 214.799,48.400 215.086,48.400 215.321 C 48.400 215.556,47.995 216.179,47.500 216.705 C 46.641 217.619,46.594 218.012,46.476 225.412 C 46.361 232.670,46.304 233.177,45.577 233.407 C 44.234 233.834,43.852 242.414,45.120 243.681 C 45.541 244.101,56.096 244.200,100.720 244.200 C 161.324 244.200,157.935 244.342,158.871 241.756 L 159.361 240.400 164.899 240.400 C 170.860 240.400,172.400 239.838,172.400 237.663 C 172.400 236.989,172.753 236.870,175.177 236.733 C 177.429 236.606,178.099 236.409,178.723 235.688 C 179.309 235.013,179.931 234.800,181.321 234.800 C 184.012 234.800,185.111 234.253,185.509 232.719 C 185.798 231.603,186.071 231.369,187.329 231.165 C 189.178 230.865,189.220 230.819,189.486 228.833 L 189.705 227.200 192.061 227.200 C 194.173 227.200,194.463 227.099,194.864 226.220 C 195.109 225.681,195.780 225.059,196.355 224.838 C 197.789 224.288,198.635 223.549,198.943 222.578 C 199.086 222.128,199.821 221.536,200.576 221.263 C 201.582 220.899,202.067 220.408,202.392 219.426 C 202.649 218.646,203.175 217.995,203.647 217.872 C 204.094 217.755,204.557 217.286,204.676 216.830 C 204.796 216.373,205.040 216.000,205.220 216.000 C 205.399 216.000,205.659 215.645,205.797 215.211 C 205.934 214.776,206.532 214.190,207.124 213.907 C 207.952 213.512,208.246 213.030,208.400 211.820 C 208.574 210.451,208.766 210.204,209.880 209.917 C 211.411 209.523,211.619 209.228,212.204 206.614 C 212.596 204.867,212.798 204.583,213.724 204.474 C 215.008 204.322,216.000 203.031,216.000 201.511 C 216.000 200.825,216.214 200.400,216.561 200.400 C 217.430 200.400,218.000 198.182,218.000 194.797 L 218.000 191.714 219.700 191.356 L 221.400 190.998 221.513 186.499 L 221.626 182.000 222.713 181.994 C 225.069 181.981,225.554 180.528,225.583 173.398 L 225.600 168.995 226.710 168.504 C 228.916 167.528,229.200 166.400,229.200 158.626 C 229.200 152.769,229.300 151.536,229.792 151.348 C 230.856 150.939,231.196 148.322,231.198 140.500 C 231.200 133.008,231.222 132.800,232.019 132.800 C 234.450 132.800,234.776 131.515,234.893 121.466 L 235.000 112.232 236.337 111.959 C 238.341 111.550,238.335 111.570,238.633 103.400 C 239.204 87.741,238.472 82.400,235.753 82.400 C 234.871 82.400,234.856 82.310,234.729 76.367 C 234.589 69.822,234.363 69.200,232.124 69.200 C 231.253 69.200,231.200 69.050,231.200 66.590 C 231.200 64.192,231.121 63.950,230.225 63.610 C 229.467 63.321,229.223 62.901,229.125 61.720 C 229.033 60.597,228.765 60.097,228.100 59.805 C 227.580 59.577,227.200 59.058,227.200 58.575 C 227.200 58.115,226.750 57.317,226.200 56.800 C 225.650 56.283,225.200 55.526,225.200 55.118 C 225.200 54.709,224.885 54.257,224.500 54.114 C 224.115 53.970,223.565 53.526,223.277 53.126 C 222.990 52.727,222.507 52.400,222.205 52.400 C 221.903 52.400,221.598 52.000,221.528 51.511 C 221.428 50.817,221.024 50.548,219.680 50.284 C 218.361 50.024,217.868 49.705,217.568 48.916 C 216.718 46.679,212.196 42.902,210.008 42.601 C 208.692 42.420,208.000 42.133,208.000 41.768 C 208.000 41.061,203.564 38.800,202.176 38.800 C 201.578 38.800,200.821 38.421,200.413 37.916 C 199.754 37.103,199.276 37.019,194.448 36.869 C 189.412 36.712,189.200 36.671,189.194 35.853 C 189.186 34.775,188.828 34.240,187.726 33.660 C 186.766 33.155,81.169 32.964,80.667 33.467 M172.000 49.109 C 174.750 49.326,177.540 49.689,178.200 49.916 C 178.860 50.143,181.380 50.625,183.800 50.986 C 188.989 51.762,192.134 52.598,192.776 53.372 C 193.031 53.679,194.116 54.140,195.188 54.397 C 197.032 54.839,201.169 57.197,203.800 59.305 C 204.460 59.833,205.540 60.589,206.200 60.985 C 207.699 61.883,212.705 67.459,213.629 69.259 C 214.007 69.997,214.700 70.948,215.169 71.372 C 215.637 71.795,216.406 73.415,216.878 74.971 C 217.350 76.527,218.140 78.610,218.634 79.600 C 220.710 83.764,221.791 96.610,220.804 105.376 C 220.555 107.589,220.178 111.161,219.967 113.314 C 219.756 115.466,219.163 118.526,218.649 120.114 C 218.135 121.701,217.516 124.710,217.273 126.800 C 216.215 135.910,215.629 139.542,214.877 141.649 C 214.436 142.886,213.961 145.136,213.822 146.649 C 213.285 152.501,212.692 156.337,211.789 159.805 C 211.272 161.788,210.545 165.208,210.174 167.405 C 209.802 169.602,209.150 172.290,208.724 173.378 C 208.298 174.466,207.670 176.716,207.329 178.378 C 206.673 181.571,206.033 183.143,205.062 183.949 C 204.736 184.219,204.250 185.376,203.981 186.520 C 203.450 188.776,202.267 191.388,201.584 191.810 C 201.350 191.955,200.727 193.047,200.201 194.237 C 199.675 195.427,199.087 196.400,198.896 196.400 C 198.704 196.400,198.162 197.085,197.692 197.922 C 196.823 199.469,196.078 200.376,193.021 203.616 C 192.079 204.614,191.013 206.001,190.653 206.698 C 190.293 207.394,189.534 208.287,188.966 208.682 C 188.398 209.077,187.062 210.120,185.997 211.000 C 184.148 212.528,182.216 213.968,179.461 215.872 C 178.768 216.351,177.658 217.186,176.997 217.727 C 176.335 218.267,174.985 218.951,173.997 219.247 C 173.008 219.542,171.225 220.369,170.033 221.086 C 168.841 221.803,167.221 222.504,166.433 222.645 C 165.645 222.786,163.910 223.421,162.579 224.055 C 160.704 224.947,158.807 225.390,154.179 226.014 C 150.890 226.458,147.120 227.026,145.800 227.277 C 143.304 227.751,68.322 228.246,66.489 227.800 C 63.995 227.195,64.230 217.514,67.006 206.400 C 67.528 204.310,68.233 200.260,68.573 197.400 C 69.176 192.322,69.700 189.668,70.982 185.200 C 71.329 183.990,71.781 180.840,71.985 178.200 C 72.190 175.560,72.655 172.320,73.019 171.000 C 74.349 166.175,74.772 164.166,74.787 162.600 C 74.807 160.544,76.153 152.672,77.146 148.800 C 77.570 147.150,78.118 143.910,78.365 141.600 C 78.612 139.290,79.263 135.690,79.812 133.600 C 81.068 128.822,81.458 126.527,81.964 120.948 C 82.202 118.319,82.705 115.616,83.193 114.348 C 83.666 113.116,84.278 109.897,84.627 106.800 C 85.325 100.611,86.131 96.131,87.221 92.387 C 87.640 90.950,88.095 88.160,88.233 86.187 C 88.371 84.214,89.083 80.080,89.814 77.000 C 90.545 73.920,91.424 68.830,91.767 65.689 C 92.128 62.384,92.663 59.451,93.036 58.729 C 93.391 58.043,93.945 55.843,94.267 53.841 C 94.685 51.238,95.096 49.939,95.709 49.286 L 96.566 48.371 131.783 48.543 C 151.152 48.637,169.250 48.891,172.000 49.109 M135.141 88.851 C 133.487 89.457,132.560 92.184,131.830 98.600 C 131.143 104.628,130.112 110.354,129.597 111.000 C 129.257 111.427,128.598 115.736,128.221 120.000 C 127.904 123.597,127.266 127.144,126.149 131.538 C 125.627 133.594,125.088 136.834,124.952 138.738 C 124.709 142.130,124.321 144.212,123.044 148.969 C 122.694 150.272,122.030 154.406,121.569 158.156 C 121.108 161.906,120.501 165.429,120.219 165.987 C 119.438 167.533,118.874 170.603,118.600 174.800 C 118.463 176.890,118.133 179.864,117.866 181.410 C 117.419 184.000,117.600 187.333,118.222 187.955 C 119.159 188.892,140.733 188.165,144.960 187.055 C 151.267 185.398,156.381 182.749,156.993 180.823 C 157.121 180.420,157.675 179.604,158.225 179.011 C 158.774 178.419,159.893 176.664,160.712 175.111 C 161.530 173.559,162.440 171.853,162.734 171.320 C 163.027 170.787,163.426 169.231,163.620 167.863 C 163.813 166.495,164.322 164.211,164.751 162.788 C 165.775 159.382,166.661 154.696,167.174 149.968 C 167.402 147.860,168.045 144.738,168.603 143.030 C 169.160 141.322,169.800 138.097,170.023 135.863 C 170.610 130.012,171.503 124.674,172.226 122.707 C 173.072 120.405,173.446 110.748,172.840 106.865 C 171.200 96.359,165.431 91.459,151.800 88.994 C 148.164 88.336,136.812 88.239,135.141 88.851 M155.836 108.252 C 156.011 109.185,156.375 109.773,156.854 109.898 C 157.934 110.181,157.847 112.271,156.719 113.185 C 155.870 113.873,155.831 114.217,155.670 122.540 L 155.502 131.181 154.061 131.890 C 152.150 132.831,152.087 133.176,152.040 142.851 C 151.998 151.598,151.997 151.600,150.000 152.205 C 148.479 152.665,148.413 152.963,148.406 159.300 C 148.400 164.840,148.353 165.200,147.636 165.200 C 146.530 165.200,144.840 167.407,144.549 169.231 L 144.298 170.800 140.549 170.800 L 136.800 170.800 136.800 164.800 C 136.800 160.113,136.915 158.800,137.325 158.800 C 137.614 158.800,138.379 158.249,139.025 157.575 L 140.200 156.349 140.400 147.475 C 140.599 138.645,140.605 138.599,141.500 138.472 C 142.006 138.400,142.400 138.064,142.400 137.704 C 142.400 137.351,142.691 136.741,143.047 136.348 C 143.758 135.563,144.343 129.848,144.380 123.347 C 144.398 120.140,144.490 119.670,145.139 119.500 C 146.107 119.247,146.390 117.446,146.396 111.500 L 146.400 106.800 150.982 106.800 L 155.564 106.800 155.836 108.252 M266.209 149.048 C 265.852 149.405,265.460 150.199,265.337 150.813 C 265.215 151.427,264.801 152.011,264.418 152.111 C 263.388 152.380,263.200 154.034,263.200 162.805 L 263.200 170.711 261.805 170.973 C 259.742 171.360,259.600 171.966,259.600 180.411 C 259.600 187.566,259.550 188.088,258.850 188.271 C 256.523 188.880,255.650 192.482,255.618 201.604 C 255.602 206.164,255.529 206.652,254.800 207.107 C 254.038 207.583,254.000 208.040,254.000 216.803 C 254.000 224.688,253.915 226.000,253.403 226.000 C 253.075 226.000,252.582 226.360,252.307 226.800 C 252.032 227.240,251.513 227.600,251.154 227.600 C 250.209 227.600,250.000 229.202,250.000 236.450 C 250.000 241.727,249.902 242.800,249.421 242.800 C 249.102 242.800,248.337 243.267,247.721 243.838 L 246.600 244.876 246.479 253.985 L 246.359 263.095 244.823 263.698 C 242.997 264.415,242.963 264.559,242.571 273.105 C 242.357 277.775,242.191 278.877,241.659 279.175 C 241.165 279.451,240.974 280.305,240.864 282.725 L 240.719 285.911 239.147 286.162 C 237.964 286.351,237.482 286.659,237.197 287.407 C 236.832 288.368,236.699 288.400,233.010 288.400 L 229.200 288.400 229.200 285.800 C 229.200 284.370,229.375 283.200,229.590 283.200 C 230.863 283.200,231.200 280.860,231.200 272.020 L 231.200 263.200 232.226 263.200 C 234.551 263.200,234.800 262.734,234.800 258.373 C 234.800 254.925,234.704 254.341,234.100 254.129 C 233.715 253.994,233.095 253.505,232.723 253.042 L 232.046 252.200 196.523 252.077 C 150.660 251.918,154.449 251.146,154.080 260.731 C 153.906 265.237,153.797 265.836,153.043 266.446 C 152.236 267.099,152.195 267.526,152.080 276.491 L 151.960 285.855 150.280 286.227 L 148.600 286.600 148.495 302.113 L 148.391 317.627 149.377 318.613 C 149.920 319.156,150.715 319.600,151.145 319.600 C 151.863 319.600,151.938 319.946,152.064 323.824 C 152.186 327.603,152.292 328.118,153.073 328.724 C 153.556 329.098,154.069 330.084,154.223 330.932 C 154.376 331.774,154.748 332.559,155.051 332.675 C 155.353 332.791,155.600 333.128,155.600 333.425 C 155.600 333.721,156.050 334.414,156.600 334.964 C 157.150 335.514,157.600 336.227,157.600 336.549 C 157.600 337.874,158.135 338.371,159.835 338.626 L 161.600 338.891 161.600 340.645 L 161.600 342.400 163.400 342.400 L 165.200 342.400 165.200 344.013 C 165.200 345.188,165.390 345.692,165.900 345.871 C 166.669 346.140,167.231 346.606,170.200 349.436 C 172.255 351.394,173.706 351.945,176.900 351.983 C 178.239 351.998,178.400 352.110,178.400 353.026 C 178.400 355.389,178.827 355.600,183.614 355.600 L 188.000 355.600 188.000 356.724 C 188.000 359.141,188.502 359.338,195.151 359.527 C 200.398 359.676,201.200 359.785,201.203 360.350 C 201.204 360.707,201.827 361.423,202.586 361.940 L 203.967 362.880 221.083 363.090 C 242.800 363.355,247.095 362.953,250.200 360.367 C 250.828 359.844,252.186 359.654,256.524 359.483 L 262.048 359.265 263.420 357.932 C 264.174 357.200,264.793 356.375,264.796 356.100 C 264.799 355.742,265.717 355.600,268.038 355.600 C 271.735 355.600,273.337 354.930,273.968 353.121 C 274.310 352.138,274.570 351.995,276.079 351.960 C 278.698 351.899,279.783 351.483,279.928 350.484 C 280.014 349.889,280.334 349.600,280.906 349.600 C 281.825 349.600,284.000 347.753,284.000 346.972 C 284.000 346.678,285.002 346.386,286.593 346.216 C 289.262 345.930,289.722 345.577,290.631 343.123 C 290.769 342.750,291.358 342.390,291.941 342.323 C 292.873 342.215,293.015 342.001,293.121 340.542 C 293.239 338.920,293.279 338.879,294.964 338.626 C 296.268 338.431,296.795 338.129,297.134 337.384 C 297.381 336.843,297.802 336.400,298.070 336.400 C 298.823 336.400,300.800 334.334,300.800 333.548 C 300.800 333.161,301.186 332.575,301.659 332.244 C 302.372 331.745,302.550 331.129,302.711 328.621 L 302.905 325.600 304.224 325.600 C 305.688 325.600,306.800 324.736,306.800 323.598 C 306.800 323.189,307.132 322.749,307.537 322.620 C 309.070 322.133,310.040 320.569,310.286 318.186 C 310.417 316.915,310.773 315.588,311.077 315.238 C 313.533 312.402,313.781 311.872,313.936 309.135 C 314.066 306.837,314.204 306.400,314.802 306.400 C 315.876 306.400,316.000 305.651,316.000 299.167 L 316.000 293.200 317.351 293.200 C 319.571 293.200,319.783 292.588,319.943 285.739 C 320.021 282.362,320.247 279.600,320.445 279.600 C 321.025 279.600,322.560 277.653,323.070 276.273 C 323.359 275.487,323.551 272.249,323.570 267.815 L 323.600 260.630 325.300 258.899 L 327.000 257.168 327.122 248.809 C 327.243 240.551,327.255 240.448,328.122 240.325 C 328.987 240.202,329.003 240.072,329.200 231.825 L 329.400 223.450 330.600 223.137 C 332.765 222.574,332.950 221.811,333.128 212.700 C 333.277 205.077,333.349 204.400,334.001 204.400 C 336.362 204.400,336.590 203.558,336.725 194.336 C 336.826 187.473,336.963 185.712,337.428 185.354 C 339.441 183.799,340.128 181.240,340.315 174.600 C 340.414 171.080,340.619 168.110,340.771 168.000 C 342.248 166.928,342.400 165.910,342.400 157.111 L 342.400 148.400 304.629 148.400 C 270.339 148.400,266.797 148.460,266.209 149.048 M322.724 164.729 C 324.522 166.112,324.154 173.335,321.996 179.010 C 321.791 179.550,321.431 182.018,321.197 184.496 C 320.963 186.973,320.348 190.710,319.832 192.800 C 318.714 197.323,318.131 200.796,317.583 206.200 C 317.359 208.400,316.728 211.501,316.180 213.092 C 315.501 215.061,315.057 217.551,314.790 220.892 C 314.573 223.591,313.932 227.600,313.365 229.800 C 311.878 235.565,311.696 236.536,311.233 241.200 C 311.004 243.510,310.283 247.560,309.631 250.200 C 308.979 252.840,308.174 257.610,307.842 260.800 C 307.503 264.051,306.892 267.568,306.450 268.802 C 306.016 270.014,305.460 272.841,305.213 275.085 C 304.542 281.177,304.124 283.400,303.376 284.846 C 302.388 286.758,302.039 288.182,301.583 292.178 C 301.287 294.775,300.794 296.598,299.787 298.828 C 299.024 300.518,298.400 302.201,298.400 302.569 C 298.400 302.936,297.590 304.879,296.600 306.886 C 295.610 308.894,294.800 310.769,294.800 311.054 C 294.800 311.339,294.285 312.163,293.655 312.886 C 293.026 313.609,292.193 314.830,291.804 315.600 C 290.686 317.812,288.503 320.687,284.712 324.938 C 282.780 327.104,281.200 329.026,281.200 329.209 C 281.200 329.392,280.209 330.108,278.998 330.801 C 277.787 331.494,276.561 332.296,276.273 332.584 C 275.985 332.872,274.971 333.505,274.019 333.990 C 273.067 334.476,271.924 335.212,271.480 335.626 C 271.035 336.040,269.406 336.863,267.858 337.454 C 266.311 338.045,264.425 338.950,263.667 339.465 C 262.909 339.979,261.960 340.400,261.559 340.400 C 261.158 340.400,259.878 340.781,258.715 341.246 C 255.101 342.691,251.735 343.531,247.692 343.997 C 245.551 344.244,241.866 344.809,239.502 345.253 C 233.880 346.307,210.577 346.221,207.800 345.136 C 206.920 344.792,204.940 344.388,203.400 344.237 C 199.128 343.821,196.657 343.252,194.410 342.168 C 193.284 341.624,191.349 340.916,190.111 340.594 C 188.872 340.271,187.486 339.657,187.030 339.230 C 186.573 338.803,185.030 337.929,183.600 337.288 C 182.170 336.647,180.742 335.812,180.427 335.432 C 180.111 335.052,179.211 334.408,178.427 334.000 C 176.466 332.981,170.199 325.416,169.796 323.583 C 169.667 322.994,168.965 321.587,168.235 320.455 C 166.803 318.231,166.199 315.470,165.775 309.200 C 165.649 307.330,165.272 305.035,164.939 304.100 C 164.436 302.687,164.415 302.045,164.812 300.300 C 165.304 298.144,165.611 295.511,166.385 286.800 C 167.063 279.176,169.710 270.212,171.578 269.212 C 172.075 268.946,179.227 268.800,191.812 268.800 C 216.178 268.800,214.556 268.221,213.668 276.596 C 211.597 296.135,213.656 301.901,223.800 304.984 C 225.120 305.385,226.997 305.958,227.971 306.257 C 232.019 307.498,243.512 304.924,246.281 302.155 C 246.849 301.587,248.089 300.790,249.037 300.384 C 250.334 299.828,250.977 299.219,251.635 297.923 C 252.116 296.975,252.921 295.707,253.425 295.105 C 253.929 294.502,254.638 292.972,255.002 291.705 C 255.366 290.437,256.102 288.608,256.638 287.639 C 257.173 286.671,257.799 284.601,258.027 283.039 C 258.538 279.555,259.737 273.343,260.777 268.800 C 261.204 266.930,261.727 263.600,261.937 261.400 C 262.148 259.200,262.606 256.590,262.956 255.600 C 263.307 254.610,263.873 251.730,264.215 249.200 C 265.270 241.401,266.053 237.099,266.858 234.668 C 267.283 233.385,267.815 230.325,268.040 227.868 C 268.480 223.066,269.333 218.374,270.233 215.800 C 270.540 214.920,270.983 212.580,271.216 210.600 C 272.077 203.297,272.387 201.334,273.146 198.400 C 273.572 196.750,274.140 193.510,274.407 191.200 C 274.897 186.968,275.800 182.226,276.958 177.800 C 277.304 176.480,277.695 173.960,277.829 172.200 C 278.185 167.487,278.583 166.520,280.721 165.164 L 282.557 164.000 302.178 164.009 C 320.360 164.017,321.868 164.070,322.724 164.729 " stroke="none" fill="#f3f6f8" fill-rule="evenodd"></path><path id="path1" d="M95.709 49.286 C 95.096 49.939,94.685 51.238,94.267 53.841 C 93.945 55.843,93.391 58.043,93.036 58.729 C 92.663 59.451,92.128 62.384,91.767 65.689 C 91.424 68.830,90.545 73.920,89.814 77.000 C 89.083 80.080,88.371 84.214,88.233 86.187 C 88.095 88.160,87.640 90.950,87.221 92.387 C 86.131 96.131,85.325 100.611,84.627 106.800 C 84.278 109.897,83.666 113.116,83.193 114.348 C 82.705 115.616,82.202 118.319,81.964 120.948 C 81.458 126.527,81.068 128.822,79.812 133.600 C 79.263 135.690,78.612 139.290,78.365 141.600 C 78.118 143.910,77.570 147.150,77.146 148.800 C 76.153 152.672,74.807 160.544,74.787 162.600 C 74.772 164.166,74.349 166.175,73.019 171.000 C 72.655 172.320,72.190 175.560,71.985 178.200 C 71.781 180.840,71.329 183.990,70.982 185.200 C 69.700 189.668,69.176 192.322,68.573 197.400 C 68.233 200.260,67.528 204.310,67.006 206.400 C 64.230 217.514,63.995 227.195,66.489 227.800 C 68.322 228.246,143.304 227.751,145.800 227.277 C 147.120 227.026,150.890 226.458,154.179 226.014 C 158.807 225.390,160.704 224.947,162.579 224.055 C 163.910 223.421,165.645 222.786,166.433 222.645 C 167.221 222.504,168.841 221.803,170.033 221.086 C 171.225 220.369,173.008 219.542,173.997 219.247 C 174.985 218.951,176.335 218.267,176.997 217.727 C 177.658 217.186,178.768 216.351,179.461 215.872 C 182.216 213.968,184.148 212.528,185.997 211.000 C 187.062 210.120,188.398 209.077,188.966 208.682 C 189.534 208.287,190.293 207.394,190.653 206.698 C 191.013 206.001,192.079 204.614,193.021 203.616 C 196.078 200.376,196.823 199.469,197.692 197.922 C 198.162 197.085,198.704 196.400,198.896 196.400 C 199.087 196.400,199.675 195.427,200.201 194.237 C 200.727 193.047,201.350 191.955,201.584 191.810 C 202.267 191.388,203.450 188.776,203.981 186.520 C 204.250 185.376,204.736 184.219,205.062 183.949 C 206.033 183.143,206.673 181.571,207.329 178.378 C 207.670 176.716,208.298 174.466,208.724 173.378 C 209.150 172.290,209.802 169.602,210.174 167.405 C 210.545 165.208,211.272 161.788,211.789 159.805 C 212.692 156.337,213.285 152.501,213.822 146.649 C 213.961 145.136,214.436 142.886,214.877 141.649 C 215.629 139.542,216.215 135.910,217.273 126.800 C 217.516 124.710,218.135 121.701,218.649 120.114 C 219.163 118.526,219.756 115.466,219.967 113.314 C 220.178 111.161,220.555 107.589,220.804 105.376 C 221.791 96.610,220.710 83.764,218.634 79.600 C 218.140 78.610,217.350 76.527,216.878 74.971 C 216.406 73.415,215.637 71.795,215.169 71.372 C 214.700 70.948,214.007 69.997,213.629 69.259 C 212.705 67.459,207.699 61.883,206.200 60.985 C 205.540 60.589,204.460 59.833,203.800 59.305 C 201.169 57.197,197.032 54.839,195.188 54.397 C 194.116 54.140,193.031 53.679,192.776 53.372 C 192.134 52.598,188.989 51.762,183.800 50.986 C 181.380 50.625,178.860 50.143,178.200 49.916 C 175.552 49.005,165.444 48.706,131.783 48.543 L 96.566 48.371 95.709 49.286 M151.800 88.994 C 165.431 91.459,171.200 96.359,172.840 106.865 C 173.446 110.748,173.072 120.405,172.226 122.707 C 171.503 124.674,170.610 130.012,170.023 135.863 C 169.800 138.097,169.160 141.322,168.603 143.030 C 168.045 144.738,167.402 147.860,167.174 149.968 C 166.661 154.696,165.775 159.382,164.751 162.788 C 164.322 164.211,163.813 166.495,163.620 167.863 C 163.426 169.231,163.027 170.787,162.734 171.320 C 162.440 171.853,161.530 173.559,160.712 175.111 C 159.893 176.664,158.774 178.419,158.225 179.011 C 157.675 179.604,157.121 180.420,156.993 180.823 C 156.381 182.749,151.267 185.398,144.960 187.055 C 140.733 188.165,119.159 188.892,118.222 187.955 C 117.600 187.333,117.419 184.000,117.866 181.410 C 118.133 179.864,118.463 176.890,118.600 174.800 C 118.874 170.603,119.438 167.533,120.219 165.987 C 120.501 165.429,121.108 161.906,121.569 158.156 C 122.030 154.406,122.694 150.272,123.044 148.969 C 124.321 144.212,124.709 142.130,124.952 138.738 C 125.088 136.834,125.627 133.594,126.149 131.538 C 127.266 127.144,127.904 123.597,128.221 120.000 C 128.598 115.736,129.257 111.427,129.597 111.000 C 130.112 110.354,131.143 104.628,131.830 98.600 C 132.560 92.184,133.487 89.457,135.141 88.851 C 136.812 88.239,148.164 88.336,151.800 88.994 M280.721 165.164 C 278.583 166.520,278.185 167.487,277.829 172.200 C 277.695 173.960,277.304 176.480,276.958 177.800 C 275.800 182.226,274.897 186.968,274.407 191.200 C 274.140 193.510,273.572 196.750,273.146 198.400 C 272.387 201.334,272.077 203.297,271.216 210.600 C 270.983 212.580,270.540 214.920,270.233 215.800 C 269.333 218.374,268.480 223.066,268.040 227.868 C 267.815 230.325,267.283 233.385,266.858 234.668 C 266.053 237.099,265.270 241.401,264.215 249.200 C 263.873 251.730,263.307 254.610,262.956 255.600 C 262.606 256.590,262.148 259.200,261.937 261.400 C 261.727 263.600,261.204 266.930,260.777 268.800 C 259.737 273.343,258.538 279.555,258.027 283.039 C 257.799 284.601,257.173 286.671,256.638 287.639 C 256.102 288.608,255.366 290.437,255.002 291.705 C 254.638 292.972,253.929 294.502,253.425 295.105 C 252.921 295.707,252.116 296.975,251.635 297.923 C 250.977 299.219,250.334 299.828,249.037 300.384 C 248.089 300.790,246.849 301.587,246.281 302.155 C 243.512 304.924,232.019 307.498,227.971 306.257 C 226.997 305.958,225.120 305.385,223.800 304.984 C 219.806 303.770,218.582 302.960,216.033 299.840 C 212.544 295.571,212.110 291.301,213.668 276.596 C 214.556 268.221,216.178 268.800,191.812 268.800 C 179.227 268.800,172.075 268.946,171.578 269.212 C 169.710 270.212,167.063 279.176,166.385 286.800 C 165.611 295.511,165.304 298.144,164.812 300.300 C 164.415 302.045,164.436 302.687,164.939 304.100 C 165.272 305.035,165.649 307.330,165.775 309.200 C 166.199 315.470,166.803 318.231,168.235 320.455 C 168.965 321.587,169.667 322.994,169.796 323.583 C 170.199 325.416,176.466 332.981,178.427 334.000 C 179.211 334.408,180.111 335.052,180.427 335.432 C 180.742 335.812,182.170 336.647,183.600 337.288 C 185.030 337.929,186.573 338.803,187.030 339.230 C 187.486 339.657,188.872 340.271,190.111 340.594 C 191.349 340.916,193.284 341.624,194.410 342.168 C 196.657 343.252,199.128 343.821,203.400 344.237 C 204.940 344.388,206.920 344.792,207.800 345.136 C 210.577 346.221,233.880 346.307,239.502 345.253 C 241.866 344.809,245.551 344.244,247.692 343.997 C 251.735 343.531,255.101 342.691,258.715 341.246 C 259.878 340.781,261.158 340.400,261.559 340.400 C 261.960 340.400,262.909 339.979,263.667 339.465 C 264.425 338.950,266.311 338.045,267.858 337.454 C 269.406 336.863,271.035 336.040,271.480 335.626 C 271.924 335.212,273.067 334.476,274.019 333.990 C 274.971 333.505,275.985 332.872,276.273 332.584 C 276.561 332.296,277.787 331.494,278.998 330.801 C 280.209 330.108,281.200 329.392,281.200 329.209 C 281.200 329.026,282.780 327.104,284.712 324.938 C 288.503 320.687,290.686 317.812,291.804 315.600 C 292.193 314.830,293.026 313.609,293.655 312.886 C 294.285 312.163,294.800 311.339,294.800 311.054 C 294.800 310.769,295.610 308.894,296.600 306.886 C 297.590 304.879,298.400 302.936,298.400 302.569 C 298.400 302.201,299.024 300.518,299.787 298.828 C 300.794 296.598,301.287 294.775,301.583 292.178 C 302.039 288.182,302.388 286.758,303.376 284.846 C 304.124 283.400,304.542 281.177,305.213 275.085 C 305.460 272.841,306.016 270.014,306.450 268.802 C 306.892 267.568,307.503 264.051,307.842 260.800 C 308.174 257.610,308.979 252.840,309.631 250.200 C 310.283 247.560,311.004 243.510,311.233 241.200 C 311.696 236.536,311.878 235.565,313.365 229.800 C 313.932 227.600,314.573 223.591,314.790 220.892 C 315.057 217.551,315.501 215.061,316.180 213.092 C 316.728 211.501,317.359 208.400,317.583 206.200 C 318.131 200.796,318.714 197.323,319.832 192.800 C 320.348 190.710,320.963 186.973,321.197 184.496 C 321.431 182.018,321.791 179.550,321.996 179.010 C 323.023 176.309,324.327 168.450,323.994 166.972 C 323.300 163.895,324.215 164.019,302.178 164.009 L 282.557 164.000 280.721 165.164 " stroke="none" fill="#0e4f88" fill-rule="evenodd"></path></g></svg>